<?xml version="1.0" encoding="utf-8"?>
<!DOCTYPE svg PUBLIC "-//W3C//DTD SVG 1.0//EN" "http://www.w3.org/TR/2001/REC-SVG-20010904/DTD/svg10.dtd">
<svg version="1.0" xmlns="http://www.w3.org/2000/svg" width="705px" height="337px" viewBox="0 0 705 337" preserveAspectRatio="xMidYMid meet">
 <g fill="#19263c">
  <path d="M0 168.59 l0 -168.59 352.50 0 352.50 0 0 168.59 0 168.59 -352.50 0 -352.50 0 0 -168.59z m587.13 129.07 c0.77 -0.77 2.54 -3.50 3.88 -5.99 1.39 -2.49 3.16 -5.75 3.98 -7.18 1.92 -3.50 7.33 -13.27 11.40 -20.35 1.77 -3.16 4.41 -7.90 5.84 -10.54 2.25 -4.17 8 -14.42 15.57 -27.78 3.93 -6.94 6.13 -10.87 13.79 -24.67 4.17 -7.52 10.63 -19.16 14.42 -25.86 3.78 -6.71 6.85 -12.50 6.85 -12.88 0 -0.34 -1.05 -2.39 -2.35 -4.55 -1.29 -2.11 -4.31 -7.42 -6.75 -11.78 -2.44 -4.36 -5.36 -9.58 -6.51 -11.59 -1.15 -2.06 -3.07 -5.41 -4.21 -7.42 -1.92 -3.45 -4.55 -8.05 -12.98 -22.89 -1.82 -3.16 -4.21 -7.38 -5.27 -9.34 -1.10 -1.96 -3.93 -7.04 -6.32 -11.26 -2.35 -4.21 -4.98 -8.96 -5.89 -10.54 -0.86 -1.58 -3.35 -5.99 -5.51 -9.82 -8.86 -15.66 -12.69 -22.51 -15.33 -27.44 -1.53 -2.87 -3.26 -5.80 -3.83 -6.47 l-1.10 -1.29 -249.67 -0.14 c-223.28 -0.10 -249.77 0 -250.77 0.62 -1.48 1.01 -3.21 3.78 -11.40 18.44 -1.53 2.78 -4.12 7.42 -5.75 10.30 -1.63 2.92 -3.59 6.47 -4.41 7.90 -2.20 4.02 -7.47 13.36 -15.23 27.06 -3.88 6.85 -8.14 14.42 -9.48 16.76 -1.29 2.39 -3.21 5.70 -4.17 7.42 -0.96 1.72 -2.83 4.93 -4.07 7.18 -5.70 10.06 -9.82 17.39 -12.50 22.03 -4.69 8.09 -8.62 14.99 -9.20 16.09 -0.43 0.77 -0.34 1.34 0.34 2.63 1.96 3.59 23.52 42.10 28.40 50.72 1.72 3.02 6.32 11.21 10.20 18.20 3.88 6.99 7.85 14.08 8.86 15.81 0.96 1.72 2.44 4.31 3.26 5.75 0.77 1.44 4.60 8.33 8.53 15.33 3.88 6.99 8.67 15.61 10.63 19.16 3.93 7.14 4.45 7.85 6.56 9.15 1.39 0.86 8.62 0.91 250.10 0.77 l248.71 -0.10 1.39 -1.44z"/>
  <path d="M102.11 267.39 c-0.34 -0.14 -1.10 -1.25 -1.72 -2.44 -1.82 -3.74 -5.17 -9.82 -6.03 -11.11 -0.48 -0.67 -1.92 -3.26 -3.21 -5.75 -2.97 -5.65 -9.72 -17.77 -11.30 -20.35 -0.62 -1.05 -3.59 -6.32 -6.56 -11.73 -2.97 -5.41 -7.14 -12.84 -9.24 -16.52 -2.11 -3.69 -4.50 -7.95 -5.32 -9.44 -0.81 -1.48 -2.73 -4.89 -4.21 -7.52 -1.53 -2.59 -2.78 -4.89 -2.78 -5.03 0 -0.19 -0.57 -1.20 -1.25 -2.30 -3.35 -5.32 -5.94 -10.68 -5.94 -12.31 0 -1.72 2.49 -6.51 10.30 -19.92 1.39 -2.35 3.74 -6.56 5.27 -9.34 1.48 -2.78 3.98 -7.18 5.51 -9.82 3.78 -6.51 12.74 -22.46 19.44 -34.48 6.32 -11.45 10.01 -17.96 13.41 -23.95 l3.30 -5.75 234.54 -0.14 234.49 -0.10 2.54 4.41 c1.34 2.44 4.31 7.71 6.56 11.64 2.20 3.98 5.56 9.87 7.38 13.17 4.02 7.28 3.54 6.37 8.29 14.85 2.16 3.83 5.32 9.44 7.04 12.45 1.72 3.02 4.50 8 6.23 11.02 5.70 10.11 12.21 21.74 15.90 28.26 2.30 4.12 3.64 6.99 3.64 7.90 0 0.81 -0.81 2.87 -1.96 4.79 -1.05 1.87 -2.92 5.17 -4.17 7.42 -1.20 2.25 -4.26 7.76 -6.80 12.21 -5.08 8.91 -7.38 13.03 -15.09 27.01 -2.83 5.12 -5.65 10.15 -6.27 11.16 -0.62 1.01 -1.15 1.96 -1.15 2.11 0 0.19 -2.25 4.26 -5.03 9.05 -2.78 4.79 -5.03 8.86 -5.03 9 0 0.14 -1.34 2.49 -2.97 5.22 -1.58 2.68 -3.69 6.32 -4.60 8.05 -2.63 4.98 -3.98 7.38 -4.50 8.05 -0.38 0.43 -47.80 0.57 -234.30 0.53 -128.55 0 -234.06 -0.14 -234.39 -0.29z m150.24 -17.53 c0.91 -0.34 2.06 -1.15 2.59 -1.87 l0.96 -1.25 -1.29 -3.54 c-0.72 -1.92 -2.16 -5.99 -3.16 -9 -4.98 -14.90 -6.75 -19.40 -7.95 -20.45 l-1.20 -1.10 -53.35 0 c-45.36 0 -53.45 -0.10 -54.02 -0.67 -0.38 -0.38 -1.58 -2.49 -2.73 -4.69 -1.15 -2.16 -2.20 -4.07 -2.39 -4.21 -0.14 -0.14 -0.96 -1.53 -1.77 -3.11 -3.02 -5.89 -6.27 -11.59 -7.42 -13.12 -0.48 -0.62 -0.86 -1.92 -0.86 -2.97 l0 -1.87 46.89 -0.10 c46.12 -0.14 46.89 -0.14 47.94 -1.10 2.30 -2.11 2.39 -2.63 2.39 -17.67 0 -7.81 -0.19 -14.66 -0.48 -15.33 -1.05 -2.83 1.53 -2.68 -48.61 -2.68 -25.19 0 -46.36 -0.14 -46.98 -0.29 -1.01 -0.24 -1.15 -0.57 -1.15 -2.30 0 -1.20 0.43 -2.68 1.15 -3.88 1.29 -2.16 8.29 -14.42 9.39 -16.48 2.54 -4.69 4.60 -7.66 5.46 -7.90 0.57 -0.14 17.05 -0.29 36.64 -0.29 l35.59 0 1.58 -1.72 1.53 -1.68 -1.63 -4.41 c-0.91 -2.44 -2.68 -7.42 -3.98 -11.11 -4.93 -14.42 -5.32 -15.28 -6.99 -16.91 l-1.63 -1.53 -41.14 0.10 c-47.18 0.14 -42.48 -0.34 -45.31 4.93 -1.92 3.69 -3.78 6.94 -5.56 9.72 -0.77 1.25 -1.63 2.78 -1.96 3.45 -0.34 0.67 -1.58 2.92 -2.78 5.03 -3.40 5.89 -6.85 12.12 -8.86 15.81 -1.01 1.87 -2.01 3.64 -2.25 3.93 -0.29 0.34 -1.10 1.82 -1.87 3.26 -0.77 1.48 -1.96 3.69 -2.63 4.93 -0.72 1.25 -2.16 3.88 -3.21 5.84 -1.05 1.96 -3.21 5.84 -4.79 8.62 -1.58 2.78 -3.64 6.42 -4.55 8.14 -0.91 1.72 -2.83 5.08 -4.26 7.52 -2.92 4.93 -2.92 4.79 -0.34 9.29 0.91 1.63 1.63 2.97 1.63 3.07 0 0.10 0.72 1.44 1.63 2.97 1.53 2.68 3.59 6.42 6.75 12.36 1.82 3.45 3.30 6.08 6.94 12.45 1.48 2.63 3.88 6.94 5.36 9.58 1.44 2.63 3.83 6.94 5.32 9.58 1.44 2.63 3.11 5.65 3.69 6.71 0.62 1.05 2.06 3.74 3.26 5.99 1.20 2.25 2.54 4.60 2.97 5.27 0.43 0.67 1.92 3.35 3.30 6.03 2.73 5.32 5.27 8.62 6.90 8.96 0.57 0.10 31.32 0.24 68.34 0.24 51.01 0.05 67.67 -0.10 68.92 -0.53z m51.06 -0.91 c0.67 -0.77 1.87 -3.74 2.87 -6.94 0.96 -3.11 2.54 -8.33 3.59 -11.64 2.16 -6.99 4.21 -13.84 5.99 -19.88 0.72 -2.35 1.96 -6.37 2.73 -8.86 0.81 -2.49 1.63 -5.17 1.82 -5.99 0.24 -0.77 1.05 -3.59 1.82 -6.23 3.30 -10.97 5.51 -18.39 6.32 -21.31 0.96 -3.59 3.98 -12.98 5.36 -16.62 0.86 -2.35 1.05 -2.54 2.44 -2.54 l1.58 0 2.20 6.85 c1.20 3.74 2.63 8.33 3.16 10.15 0.53 1.87 2.73 9.29 4.89 16.52 2.16 7.23 5.22 17.48 6.75 22.75 1.58 5.27 3.30 10.97 3.78 12.69 0.53 1.72 1.58 5.27 2.35 7.90 5.22 17.91 6.80 22.27 8.38 23.47 1.25 0.91 2.06 0.96 15.42 1.10 12.26 0.10 14.32 0.05 15.76 -0.67 1.82 -0.86 2.06 -1.39 5.27 -11.21 1.63 -5.03 4.65 -13.84 5.94 -17.48 0.29 -0.77 2.16 -6.51 4.17 -12.69 2.01 -6.18 3.93 -11.88 4.26 -12.69 0.67 -1.63 2.83 -8 3.83 -11.26 0.34 -1.20 5.70 -17.24 11.93 -35.68 7.14 -21.22 11.54 -33.72 12.07 -34.10 0.67 -0.48 9.96 -0.62 45.02 -0.62 l44.16 0 3.35 5.89 c1.82 3.21 5.32 9.39 7.71 13.75 2.44 4.36 5.03 8.48 5.84 9.24 l1.39 1.29 17.96 0 18.01 0 1.39 -1.44 c0.81 -0.81 1.44 -1.72 1.44 -1.96 0 -0.57 -3.40 -7.23 -3.88 -7.62 -0.14 -0.14 -1.44 -2.39 -2.83 -5.03 -4.26 -8.09 -5.89 -11.06 -10.35 -19.01 -1.15 -2.06 -2.11 -3.93 -2.11 -4.17 0 -0.24 -0.19 -0.53 -0.38 -0.62 -0.24 -0.05 -1.39 -1.96 -2.59 -4.21 -1.20 -2.25 -3.21 -5.89 -4.45 -8.14 -1.25 -2.25 -3.30 -6.03 -4.60 -8.43 -1.29 -2.39 -2.87 -4.84 -3.59 -5.51 l-1.25 -1.15 -67.10 -0.14 c-46.65 -0.10 -67.67 0 -68.92 0.38 -2.49 0.72 -3.35 2.06 -5.41 8.48 -0.96 3.11 -2.73 8.57 -3.88 12.12 -2.39 7.52 -8.09 25.77 -9.34 29.93 -0.48 1.58 -1.58 5.12 -2.49 7.90 -0.91 2.78 -3.30 10.20 -5.36 16.52 -2.01 6.32 -4.79 14.85 -6.13 18.92 l-2.49 7.42 -1.68 0.14 -1.72 0.14 -2.06 -6.61 c-1.15 -3.64 -2.39 -7.47 -2.73 -8.53 -0.38 -1.05 -1.63 -5.12 -2.78 -9.10 -4.98 -17 -5.65 -19.40 -6.99 -23.47 -0.72 -2.35 -2.35 -7.85 -3.59 -12.21 -1.25 -4.36 -2.78 -9.48 -3.40 -11.40 -0.62 -1.92 -1.15 -3.83 -1.15 -4.31 0 -0.48 -0.19 -1.05 -0.43 -1.29 -0.24 -0.29 -0.77 -1.77 -1.15 -3.35 -2.35 -8.96 -4.84 -16.95 -5.80 -18.87 -1.53 -2.87 -2.16 -2.97 -17.96 -2.83 -12.74 0.14 -14.37 0.24 -15.52 1.01 -1.63 1.05 -2.01 1.96 -5.36 13.75 -0.34 1.20 -1.29 4.41 -2.16 7.18 -0.81 2.78 -2.92 9.77 -4.60 15.57 -3.83 12.98 -4.69 16 -7.85 26.58 -1.39 4.60 -3.11 10.44 -3.83 12.93 -0.77 2.49 -2.49 8.09 -3.83 12.45 -1.34 4.36 -2.73 8.86 -3.07 10.06 -0.57 2.06 -0.72 2.16 -2.49 2.30 l-1.92 0.14 -3.50 -10.92 c-1.92 -5.99 -3.78 -11.69 -4.12 -12.60 -0.38 -0.91 -1.29 -3.74 -2.11 -6.23 -0.77 -2.49 -2.54 -8 -3.88 -12.21 -1.34 -4.21 -3.30 -10.44 -4.41 -13.89 -1.05 -3.40 -3.21 -10.01 -4.69 -14.61 -1.53 -4.60 -3.45 -10.63 -4.31 -13.41 -1.58 -5.12 -5.03 -14.90 -5.75 -16.33 -0.96 -1.77 -2.68 -1.92 -19.83 -1.77 l-16.67 0.14 -1.10 1.29 c-1.10 1.29 -1.15 1.39 -0.38 3.83 1.05 3.74 12.74 39.08 24.33 73.66 25.34 75.72 30.13 89.90 30.65 91 0.67 1.34 2.49 3.07 3.59 3.50 0.38 0.14 7.14 0.24 14.99 0.19 l14.32 -0.10 1.10 -1.29z m255.04 0.67 c0.91 -0.43 2.06 -1.44 2.54 -2.25 1.53 -2.49 8.91 -15.57 11.64 -20.74 1.44 -2.73 3.45 -6.27 4.45 -7.90 1.01 -1.63 3.02 -5.32 4.55 -8.19 1.48 -2.87 2.87 -5.46 3.11 -5.75 0.24 -0.29 1.68 -3.02 3.16 -6.03 1.53 -3.02 3.30 -6.32 3.93 -7.33 0.62 -0.96 1.53 -2.87 2.06 -4.21 l0.96 -2.39 -1.10 -1.10 c-1.63 -1.63 -5.94 -1.87 -23.66 -1.48 -12.31 0.29 -15.18 0.48 -15.76 1.05 -0.72 0.77 -4.02 5.75 -4.02 6.13 0 0.24 -5.36 9.91 -9.82 17.72 -1.48 2.63 -2.97 4.93 -3.26 5.12 -0.34 0.19 -11.16 0.38 -24.09 0.38 -25.53 0 -24.04 0.14 -26.05 -2.87 -0.62 -0.91 -1.29 -1.77 -1.44 -1.92 -0.48 -0.38 -3.35 -4.69 -3.35 -5.03 0 -0.19 -0.38 -0.91 -0.91 -1.58 -3.35 -4.79 -7.85 -15.95 -9.48 -23.56 -1.34 -6.32 -1.20 -19.44 0.24 -24.90 1.77 -6.61 2.73 -8.96 6.80 -16.52 2.11 -3.93 3.83 -7.52 3.83 -7.95 0 -0.43 -0.43 -1.15 -1.01 -1.68 -0.91 -0.81 -1.96 -0.91 -11.16 -1.05 -10.97 -0.19 -13.12 0.14 -14.37 2.06 -0.67 1.05 -7.47 20.35 -8.38 23.95 -0.24 0.81 -3.35 10.25 -6.99 20.98 l-6.56 19.59 4.84 9.63 c5.03 10.06 8 15.76 12.07 23.08 1.34 2.39 2.59 4.65 2.78 5.03 1.77 3.45 9.96 17.67 10.54 18.39 1.87 2.20 1.10 2.16 47.94 2.20 41.24 0 44.40 -0.05 45.98 -0.86z"/>
 </g>
 <g fill="#e6c972">
  <path d="M82.71 291.82 c-1.44 -2.59 -6.80 -12.21 -11.93 -21.46 -13.27 -23.80 -22.99 -41.14 -42.58 -76.06 -11.35 -20.12 -17.19 -30.99 -17.19 -31.85 0 -0.86 2.30 -5.41 6.27 -12.36 3.45 -6.03 10.97 -19.25 16.67 -29.41 5.75 -10.15 13.84 -24.47 18.06 -31.85 4.17 -7.38 10.30 -18.25 13.60 -24.19 3.30 -5.94 9.15 -16.33 12.93 -23.08 l6.94 -12.36 251.06 0 251.06 0 1.15 2.06 c0.67 1.10 8.67 15.37 17.82 31.71 9.15 16.33 18.01 32.09 19.64 34.96 1.63 2.92 5.36 9.48 8.24 14.61 2.87 5.12 8.14 14.42 11.64 20.59 15.85 28.02 15.33 27.06 15.33 29.17 0 1.68 -1.20 4.12 -7.62 15.52 -4.17 7.42 -9.77 17.48 -12.50 22.37 -2.73 4.89 -7.42 13.27 -10.44 18.68 -3.02 5.41 -6.94 12.40 -8.72 15.57 -1.72 3.16 -7.04 12.64 -11.73 21.07 -4.69 8.43 -11.73 21.03 -15.61 28.02 l-7.04 12.69 -251.25 0.14 -251.20 0.10 -2.59 -4.65z m494.60 -35.49 c3.69 -6.51 12.31 -21.94 19.21 -34.34 6.90 -12.36 17.24 -30.84 22.94 -41.09 l10.35 -18.53 -4.12 -7.33 c-5.27 -9.29 -24.67 -43.78 -40.04 -71.22 -6.61 -11.73 -12.64 -22.46 -13.41 -23.85 l-1.39 -2.49 -233.87 0 c-202.93 0 -233.91 0.10 -234.78 0.67 -0.96 0.67 -2.20 2.83 -14.18 24.23 -3.02 5.41 -8.14 14.56 -11.40 20.35 -3.21 5.80 -11.49 20.45 -18.34 32.57 -6.80 12.12 -13.08 23.18 -13.84 24.52 l-1.39 2.54 7.38 13.27 c4.07 7.33 11.16 20.02 15.76 28.16 4.60 8.19 14.18 25.29 21.31 38.08 7.14 12.79 13.36 23.95 13.84 24.76 l0.91 1.58 234.20 0 234.20 0 6.66 -11.88z"/>
  <path d="M101.20 226.92 c-34.39 -61.88 -34.63 -62.36 -34.63 -64.56 0 -1.68 0.77 -3.40 4.65 -10.25 2.54 -4.50 9.15 -16.38 14.75 -26.39 5.60 -10.01 13.70 -24.57 18.06 -32.33 4.31 -7.76 8 -14.51 8.19 -14.94 0.29 -0.81 2.83 -0.86 43.58 -0.86 l43.25 0 5.36 15.47 c2.97 8.48 5.36 16.09 5.36 16.91 0 0.86 -0.29 1.72 -0.62 2.01 -0.43 0.38 -11.69 0.57 -36.88 0.67 l-36.26 0.14 -1.48 1.48 c-0.81 0.81 -5.22 8.14 -9.82 16.28 l-8.29 14.80 49.52 0.14 49.57 0.10 0 16.72 c0 13.41 -0.14 16.81 -0.62 17.24 -0.48 0.38 -14.32 0.57 -49.33 0.62 l-48.66 0.14 8.72 15.57 c4.79 8.57 8.96 16 9.29 16.52 0.53 0.96 1.44 0.96 54.74 1.20 l54.22 0.24 0.67 1.68 c3.21 8.33 10.25 29.36 10.25 30.56 l0 1.53 -71.03 0 -71.07 0 -11.49 -20.69z"/>
  <path d="M270.36 247.18 c-0.38 -0.72 -37.07 -110.20 -46.70 -139.61 -4.74 -14.42 -8.62 -26.82 -8.62 -27.54 0 -0.72 0.24 -1.53 0.57 -1.87 0.43 -0.43 5.17 -0.57 18.44 -0.57 l17.86 0 0.48 1.05 c0.48 1.10 2.68 7.90 18.20 56.66 15.33 48.13 16.72 52.20 16.95 51.49 0.19 -0.38 2.01 -6.51 4.07 -13.65 7.47 -25.58 16.52 -56.42 22.27 -75.67 l5.80 -19.64 16.62 -0.14 16.57 -0.10 0.53 1.53 c0.29 0.86 2.78 9.34 5.56 18.82 2.83 9.48 6.51 21.98 8.19 27.78 1.72 5.80 4.50 15.18 6.18 20.83 1.68 5.65 5.03 17 7.42 25.14 2.44 8.19 4.50 14.94 4.60 15.04 0.10 0.10 0.29 0.10 0.34 0 0.10 -0.10 3.26 -10.01 6.99 -21.98 3.78 -11.97 9.20 -29.12 12.02 -38.08 2.87 -8.96 7.38 -23.28 10.06 -31.85 2.68 -8.57 5.08 -15.95 5.32 -16.43 0.43 -0.77 4.17 -0.81 70.16 -0.72 l69.73 0.14 3.83 6.94 c2.11 3.83 5.84 10.63 8.29 15.09 2.49 4.50 8.29 15.04 12.88 23.42 6.13 11.16 8.43 15.76 8.43 16.91 l0 1.58 -19.73 0 -19.78 0 -8.19 -14.75 -8.19 -14.70 -44.49 0.19 c-40.47 0.14 -44.59 0.24 -45.31 0.96 -0.43 0.43 -3.74 9.48 -7.33 20.16 -8.33 24.67 -38.08 113.65 -38.08 113.84 0 0.10 -7.62 0.14 -16.91 0.14 l-16.91 0 -3.78 -12.55 c-7.14 -23.99 -12.74 -42.87 -20.16 -68.15 -4.07 -13.94 -7.52 -25.77 -7.66 -26.29 -0.14 -0.48 -0.48 -0.67 -0.67 -0.48 -0.24 0.24 -2.44 7.57 -4.98 16.24 -8.14 28.26 -10.92 37.55 -22.80 76.63 -2.20 7.14 -4.07 13.31 -4.17 13.79 -0.24 0.77 -1.44 0.81 -16.95 0.81 -9.63 0 -16.76 -0.19 -16.95 -0.43z"/>
  <path d="M464.62 246.56 c-2.44 -3.93 -12.45 -21.79 -17.58 -31.37 -7.71 -14.46 -11.21 -21.89 -11.21 -23.80 0.05 -0.81 4.74 -15.61 10.49 -32.86 l10.44 -31.37 10.25 -0.34 c5.65 -0.14 11.26 -0.19 12.55 -0.05 2.16 0.24 2.25 0.34 2.25 1.82 0 0.96 -0.81 2.92 -2.35 5.41 -4.69 7.81 -8.09 17.24 -9.20 25.34 -1.77 13.46 3.21 30.32 13.60 45.88 3.45 5.22 4.93 6.99 6.27 7.76 0.77 0.43 6.80 0.57 23.80 0.62 21.12 0 22.85 -0.05 23.52 -0.81 0.77 -0.96 5.99 -10.11 11.83 -20.93 2.16 -3.93 4.12 -7.42 4.41 -7.81 0.43 -0.48 4.41 -0.62 20.35 -0.62 l19.83 0 0 1.53 c0 1.72 -2.39 6.23 -25.62 48.18 l-8 14.46 -47.51 0 -47.46 0 -0.67 -1.05z"/>
 </g>
 <g fill="#121927">
  <path d="M85.49 299.86 c-2.11 -1.29 -2.63 -2.01 -6.56 -9.15 -1.96 -3.54 -6.75 -12.17 -10.63 -19.16 -3.93 -6.99 -7.76 -13.89 -8.53 -15.33 -0.81 -1.44 -2.30 -4.02 -3.26 -5.75 -1.01 -1.72 -4.98 -8.81 -8.86 -15.81 -3.88 -6.99 -8.48 -15.18 -10.20 -18.20 -4.93 -8.72 -26.49 -47.18 -28.40 -50.77 -1.77 -3.26 -1.68 -3.54 9.67 -22.99 1.72 -3.02 4.60 -8 6.27 -11.02 5.41 -9.58 7.66 -13.55 9.48 -16.76 0.96 -1.72 2.87 -5.03 4.17 -7.42 1.34 -2.35 5.60 -9.91 9.48 -16.76 7.76 -13.70 13.03 -23.04 15.23 -27.06 0.81 -1.44 2.78 -4.98 4.41 -7.90 1.63 -2.87 4.21 -7.52 5.75 -10.30 8.19 -14.66 9.91 -17.43 11.40 -18.44 1.01 -0.62 27.63 -0.72 252.21 -0.62 l251.11 0.14 1.10 1.29 c0.57 0.67 2.30 3.59 3.83 6.47 2.63 4.93 6.47 11.78 15.33 27.44 2.16 3.83 4.65 8.24 5.51 9.82 0.91 1.58 3.54 6.32 5.89 10.54 2.39 4.21 5.22 9.29 6.32 11.26 1.05 1.96 3.45 6.18 5.27 9.34 11.93 20.98 12.55 22.03 23.71 41.91 2.44 4.36 5.46 9.67 6.75 11.78 1.29 2.16 2.49 4.55 2.63 5.32 0.34 1.72 0.29 1.87 -8.19 16.91 -3.50 6.18 -9.53 16.95 -13.41 23.95 -8.09 14.61 -11.06 19.88 -13.89 24.90 -7.04 12.40 -13.22 23.37 -15.42 27.54 -1.44 2.63 -4.07 7.38 -5.84 10.54 -4.07 7.09 -9.48 16.86 -11.40 20.35 -0.81 1.44 -2.59 4.69 -3.98 7.18 -1.34 2.49 -3.11 5.22 -3.88 5.99 l-1.39 1.44 -250.15 0.10 c-242.87 0.14 -250.15 0.10 -251.54 -0.77z m507.87 -17.77 c3.88 -6.99 10.92 -19.59 15.61 -28.02 4.69 -8.43 10.01 -17.91 11.73 -21.07 1.77 -3.16 5.70 -10.15 8.72 -15.57 3.02 -5.41 7.71 -13.79 10.44 -18.68 2.73 -4.89 8.33 -14.94 12.50 -22.37 4.21 -7.47 7.62 -13.79 7.62 -14.08 0 -0.53 -1.82 -3.78 -15.33 -27.73 -3.50 -6.18 -8.76 -15.47 -11.64 -20.59 -2.87 -5.12 -6.61 -11.69 -8.24 -14.61 -1.63 -2.87 -10.49 -18.63 -19.64 -34.96 -9.15 -16.33 -17.15 -30.60 -17.82 -31.71 l-1.15 -2.06 -249.62 0 -249.62 0 -6.94 12.36 c-3.78 6.75 -9.63 17.15 -12.93 23.08 -3.30 5.94 -9.44 16.81 -13.60 24.19 -4.21 7.38 -12.31 21.70 -18.06 31.85 -5.70 10.15 -13.22 23.37 -16.67 29.36 l-6.23 10.97 17.15 30.46 c19.59 34.87 29.31 52.20 42.58 76.01 5.12 9.24 10.49 18.87 11.93 21.46 l2.59 4.65 249.77 -0.10 249.82 -0.14 7.04 -12.69z"/>
  <path d="M98.85 266.15 c-1.10 -1.87 -9.24 -16.48 -18.15 -32.42 -8.86 -15.95 -18.34 -32.86 -21.03 -37.60 -9.58 -16.86 -18.49 -33.09 -18.49 -33.77 0 -0.77 0.14 -0.96 15.81 -28.74 6.80 -11.97 14.99 -26.53 18.20 -32.33 3.26 -5.80 8.38 -14.94 11.40 -20.35 11.97 -21.41 13.22 -23.56 14.18 -24.23 0.86 -0.57 32.04 -0.67 236.21 -0.67 l235.30 0 1.39 2.49 c0.77 1.39 6.80 12.12 13.41 23.85 13.75 24.57 33.91 60.39 40.28 71.65 2.39 4.26 4.36 8 4.36 8.33 0 0.29 -4.89 9.34 -10.87 20.02 -5.99 10.73 -16.28 29.22 -22.89 41.05 -6.61 11.88 -15.13 27.11 -18.92 33.86 l-6.94 12.36 -235.64 0 -235.64 0 -1.96 -3.50z m470.51 -0.48 c0.53 -0.62 1.87 -3.02 4.50 -8 0.91 -1.72 3.02 -5.36 4.60 -8.05 1.63 -2.73 2.97 -5.08 2.97 -5.22 0 -0.14 2.25 -4.21 5.03 -9 2.78 -4.79 5.03 -8.86 5.03 -9.05 0 -0.14 0.53 -1.10 1.15 -2.11 0.62 -1.01 3.45 -6.03 6.27 -11.16 7.71 -13.99 10.01 -18.10 15.09 -27.01 2.54 -4.45 5.60 -9.96 6.80 -12.21 1.25 -2.25 3.07 -5.56 4.17 -7.38 1.58 -2.78 1.82 -3.50 1.39 -4.31 -0.48 -1.01 -3.50 -6.32 -11.16 -19.92 -2.16 -3.83 -5.60 -9.96 -7.66 -13.65 -2.06 -3.69 -5.08 -8.96 -6.66 -11.73 -1.58 -2.78 -4.60 -8.14 -6.75 -11.97 -4.84 -8.62 -4.31 -7.71 -8.29 -14.85 -1.82 -3.30 -5.17 -9.20 -7.38 -13.17 -2.25 -3.93 -5.22 -9.20 -6.56 -11.64 l-2.54 -4.41 -233.05 0.10 -233.10 0.14 -3.30 5.75 c-3.40 5.99 -7.09 12.50 -13.41 23.95 -6.66 11.97 -16 28.54 -18.53 32.90 -1.05 1.77 -4.21 7.38 -7.09 12.45 -2.83 5.08 -6.61 11.83 -8.43 14.99 -1.77 3.16 -3.98 7.09 -4.89 8.76 l-1.68 3.02 1.82 3.45 c0.96 1.92 2.63 4.79 3.64 6.47 1.01 1.63 1.82 3.11 1.82 3.26 0 0.14 1.25 2.44 2.78 5.03 1.48 2.63 3.40 6.03 4.21 7.52 0.81 1.48 3.21 5.75 5.32 9.44 2.11 3.69 6.27 11.11 9.24 16.52 2.97 5.41 5.94 10.68 6.56 11.73 1.58 2.59 8.33 14.70 11.30 20.35 1.29 2.49 2.73 5.08 3.21 5.75 0.86 1.29 4.21 7.38 6.03 11.11 0.62 1.20 1.39 2.30 1.72 2.44 0.34 0.14 105.18 0.29 232.96 0.29 185.35 0.05 232.48 -0.10 232.86 -0.57z"/>
  <path d="M113.65 251.59 c-1.63 -0.34 -4.17 -3.64 -6.90 -8.96 -1.39 -2.68 -2.87 -5.36 -3.30 -6.03 -0.43 -0.67 -1.77 -3.02 -2.97 -5.27 -1.20 -2.25 -2.63 -4.93 -3.26 -5.99 -0.57 -1.05 -2.25 -4.07 -3.69 -6.71 -1.48 -2.63 -3.88 -6.94 -5.32 -9.58 -1.48 -2.63 -3.88 -6.94 -5.36 -9.58 -3.69 -6.47 -5.12 -9.05 -6.94 -12.45 -1.87 -3.54 -4.31 -8 -5.75 -10.54 -1.20 -2.16 -3.93 -7.14 -5.46 -10.06 -1.68 -3.16 -1.34 -5.08 1.58 -10.01 1.44 -2.39 3.30 -5.75 4.21 -7.47 0.91 -1.72 2.97 -5.36 4.55 -8.14 1.58 -2.78 3.74 -6.66 4.79 -8.62 1.05 -1.96 2.49 -4.60 3.21 -5.84 0.67 -1.25 1.87 -3.45 2.63 -4.93 0.77 -1.44 1.58 -2.92 1.87 -3.26 0.24 -0.29 1.25 -2.06 2.25 -3.93 2.01 -3.69 5.46 -9.91 8.86 -15.81 1.20 -2.11 2.44 -4.36 2.78 -5.03 0.34 -0.67 1.20 -2.20 1.96 -3.45 1.77 -2.78 3.64 -6.03 5.56 -9.72 2.83 -5.27 -2.06 -4.79 46.74 -4.93 l42.58 -0.10 1.63 1.53 c1.68 1.63 2.06 2.49 6.99 16.91 1.29 3.69 3.11 8.76 4.02 11.26 0.96 2.49 1.72 5.08 1.72 5.80 0 0.72 -0.67 1.92 -1.63 2.97 -1.44 1.58 -1.87 1.77 -3.93 1.82 -1.29 0 -17.39 0 -35.78 0.05 -18.39 0 -33.81 0.10 -34.29 0.24 -0.72 0.19 -2.92 3.45 -5.32 7.85 -0.38 0.77 -2.44 4.41 -4.55 8.09 -6.13 10.78 -6.23 10.92 -5.80 11.35 0.19 0.19 21.36 0.43 47.03 0.43 42.58 0.10 46.74 0.14 47.89 0.86 0.62 0.48 1.39 1.34 1.63 2.01 0.29 0.67 0.48 8.05 0.48 16.76 0 16.57 -0.05 17 -2.39 19.11 -1.05 0.96 -1.82 0.96 -47.94 1.10 -25.77 0.05 -46.89 0.29 -46.89 0.53 0 0.19 0.38 0.91 0.86 1.53 1.15 1.53 4.41 7.23 7.42 13.12 0.81 1.58 1.63 2.97 1.77 3.11 0.19 0.14 1.25 2.06 2.39 4.21 1.15 2.20 2.35 4.31 2.73 4.69 0.57 0.57 8.67 0.67 54.02 0.67 l53.35 0 1.20 1.10 c1.20 1.05 3.02 5.65 7.95 20.45 1.01 3.02 2.39 6.99 3.07 8.81 2.11 5.65 1.34 8.76 -2.49 9.87 -1.72 0.48 -137.36 0.62 -139.80 0.14z m139.47 -6.23 c-0.14 -0.48 -2.35 -6.66 -4.84 -13.79 -2.49 -7.09 -4.84 -13.70 -5.17 -14.61 l-0.67 -1.68 -54.22 -0.24 c-53.21 -0.24 -54.22 -0.24 -54.74 -1.20 -0.34 -0.48 -4.74 -8.33 -9.77 -17.43 -7.14 -12.69 -9.10 -16.62 -8.72 -17.15 0.43 -0.53 9.24 -0.62 49.24 -0.62 37.26 0 48.85 -0.14 49.28 -0.57 0.43 -0.43 0.57 -4.60 0.57 -15.81 l0 -15.23 -50.29 0 c-27.63 0 -50.29 -0.10 -50.29 -0.24 0 -0.91 18.49 -32.90 19.68 -34.05 l1.44 -1.39 36.35 -0.14 c28.88 -0.10 36.40 -0.24 36.83 -0.77 0.38 -0.43 -0.91 -4.65 -4.84 -16 l-5.36 -15.42 -41.81 0 c-39.42 0 -41.86 0.05 -42.15 0.86 -0.19 0.43 -3.88 7.18 -8.19 14.94 -4.36 7.76 -12.45 22.32 -18.06 32.33 -5.60 10.01 -12.26 21.94 -14.80 26.49 -2.73 4.79 -4.60 8.67 -4.45 9.15 0.19 0.77 8.14 15.23 34.24 62.21 l11.73 21.17 69.69 0 c66.14 0 69.64 -0.05 69.30 -0.81z"/>
  <path d="M271.56 251.59 c-1.10 -0.43 -2.92 -2.16 -3.59 -3.50 -0.53 -1.10 -4.89 -13.94 -30.65 -91 -17.72 -52.97 -24.71 -74.43 -25 -76.68 -0.24 -1.82 -0.10 -2.39 0.96 -3.59 l1.20 -1.39 18.10 -0.14 c18.68 -0.14 20.31 0 21.26 1.77 0.77 1.44 4.21 11.21 5.75 16.33 0.81 2.78 1.87 5.89 2.25 6.94 0.38 1.05 0.81 2.35 0.91 2.87 0.10 0.53 1.01 3.45 2.06 6.47 1.01 3.02 2.73 8.33 3.83 11.73 1.05 3.45 3.02 9.67 4.36 13.89 1.34 4.21 3.11 9.72 3.88 12.21 0.81 2.49 1.72 5.32 2.11 6.23 0.34 0.91 2.20 6.56 4.12 12.60 1.92 5.99 3.69 10.82 3.98 10.73 0.24 -0.10 0.72 -1.10 1.05 -2.30 0.34 -1.15 1.72 -5.65 3.07 -10.01 1.34 -4.36 3.07 -9.96 3.83 -12.45 0.72 -2.49 2.44 -8.33 3.83 -12.93 3.16 -10.58 4.02 -13.60 7.85 -26.58 1.68 -5.80 3.78 -12.79 4.60 -15.57 0.86 -2.78 1.82 -5.99 2.16 -7.18 3.35 -11.78 3.74 -12.69 5.36 -13.75 1.15 -0.77 2.83 -0.86 17 -1.01 17.34 -0.14 17.82 -0.10 19.35 2.83 0.96 1.87 3.11 8.86 5.70 18.63 0.43 1.44 0.91 3.07 1.15 3.59 0.38 0.77 0.72 1.96 1.25 4.07 0 0.14 0.38 1.44 0.86 2.87 0.43 1.44 1.68 5.65 2.73 9.34 1.10 3.69 2.63 8.86 3.45 11.49 1.48 4.79 3.45 11.49 7.38 24.90 1.15 3.98 2.39 8.05 2.78 9.10 0.34 1.05 1.58 4.89 2.73 8.48 1.10 3.59 2.20 6.47 2.39 6.32 0.24 -0.10 2.35 -6.32 4.74 -13.75 2.39 -7.42 4.74 -14.70 5.22 -16.14 0.53 -1.44 2.25 -6.85 3.88 -11.97 1.63 -5.12 3.69 -11.59 4.55 -14.37 0.86 -2.78 2.49 -7.95 3.59 -11.49 1.10 -3.54 2.92 -9.39 4.02 -12.93 1.15 -3.54 2.92 -9 3.88 -12.12 2.06 -6.42 2.92 -7.76 5.41 -8.48 1.25 -0.38 22.70 -0.48 70.36 -0.38 l68.54 0.14 1.25 1.15 c0.72 0.67 2.30 3.11 3.59 5.51 1.29 2.39 3.35 6.18 4.60 8.43 1.25 2.25 3.26 5.89 4.45 8.14 1.20 2.25 2.35 4.12 2.59 4.21 0.19 0.10 0.38 0.38 0.38 0.62 0 0.24 0.96 2.11 2.11 4.17 1.10 2.01 2.68 4.79 3.40 6.08 0.77 1.34 1.77 3.26 2.30 4.31 0.53 1.05 1.20 2.06 1.48 2.25 0.29 0.19 0.34 0.38 0.14 0.38 -0.24 0 0 0.57 0.53 1.34 0.53 0.72 1.87 3.11 2.97 5.36 1.10 2.25 2.16 4.17 2.35 4.31 0.62 0.43 3.78 6.94 3.88 7.90 0.24 2.06 -0.05 3.02 -1.15 4.31 -1.48 1.72 -3.98 2.06 -12.74 1.87 -3.54 -0.10 -11.26 -0.19 -17.10 -0.19 l-10.68 0 -1.39 -1.29 c-0.81 -0.77 -3.54 -5.12 -6.08 -9.72 -2.59 -4.60 -6.03 -10.73 -7.66 -13.65 l-3.02 -5.22 -42.82 -0.14 c-33.81 -0.10 -42.96 0 -43.63 0.48 -0.62 0.48 -11.26 30.70 -12.50 35.54 -0.14 0.53 -2.63 7.95 -5.56 16.52 -2.92 8.57 -5.60 16.52 -5.94 17.72 -0.96 3.16 -3.16 9.67 -3.64 10.78 -0.91 2.01 -1.82 5.03 -1.53 5.03 0.14 0 0.05 0.29 -0.19 0.62 -0.48 0.53 -2.54 6.42 -2.73 7.66 -0.05 0.34 -0.19 0.81 -0.34 1.05 -0.14 0.29 -1.01 2.73 -1.87 5.51 -0.86 2.78 -2.11 6.42 -2.73 8.09 -0.67 1.68 -2.06 5.75 -3.11 9.10 -5.27 16.43 -5.75 17.48 -8.72 18.01 -0.81 0.19 -8.19 0.24 -16.43 0.14 -14.18 -0.14 -14.99 -0.19 -16.24 -1.10 -1.58 -1.20 -3.16 -5.56 -8.38 -23.47 -0.77 -2.63 -1.82 -6.18 -2.35 -7.90 -0.53 -1.72 -2.35 -7.95 -4.12 -13.89 -1.72 -5.94 -3.93 -13.27 -4.89 -16.28 -0.96 -3.02 -1.77 -5.70 -1.82 -5.99 -0.05 -0.24 -1.20 -4.26 -2.59 -8.86 -1.34 -4.60 -2.78 -9.44 -3.11 -10.78 -0.38 -1.29 -1.53 -4.89 -2.54 -7.90 l-1.87 -5.51 -0.96 2.63 c-1.39 3.78 -4.41 13.12 -5.41 16.76 -0.81 2.92 -3.02 10.35 -6.32 21.31 -0.77 2.63 -1.58 5.46 -1.82 6.23 -0.19 0.81 -1.01 3.50 -1.82 5.99 -0.77 2.49 -2.01 6.51 -2.73 8.86 -1.77 6.03 -3.83 12.88 -5.99 19.88 -1.05 3.30 -2.63 8.53 -3.59 11.64 -1.01 3.21 -2.20 6.18 -2.87 6.94 l-1.10 1.29 -15.76 0.10 c-8.62 0.05 -16.04 -0.05 -16.43 -0.19z m31.27 -6.23 c0.10 -0.48 1.96 -6.66 4.17 -13.79 11.78 -38.84 14.51 -47.94 22.80 -76.63 2.54 -8.67 4.84 -16.09 5.08 -16.38 0.29 -0.34 1.10 -0.62 1.77 -0.62 1.29 0 1.34 0.10 6.47 17.86 5.41 18.53 9.82 33.33 20.50 69.21 l6.32 21.17 15.47 0 c8.53 0 15.47 -0.05 15.47 -0.14 0 -0.19 29.74 -89.18 38.08 -113.84 3.59 -10.68 6.90 -19.73 7.33 -20.16 0.72 -0.72 4.98 -0.81 46.74 -0.96 l45.93 -0.19 8.19 14.70 8.19 14.75 18.34 0 c10.06 0 18.30 -0.05 18.30 -0.14 0 -0.14 -4.31 -7.95 -21.31 -38.89 -2.44 -4.45 -6.18 -11.26 -8.29 -15.09 l-3.83 -6.94 -68.30 -0.14 c-64.66 -0.10 -68.30 -0.05 -68.68 0.72 -0.29 0.48 -2.11 6.13 -4.17 12.60 -2.01 6.47 -6.42 20.45 -9.82 31.13 -3.40 10.68 -9.20 29.12 -12.93 40.95 -7.47 23.90 -8.72 27.54 -9.20 27.54 -0.43 0 -2.54 -6.56 -7.33 -22.99 -2.30 -7.76 -5.32 -18.01 -6.71 -22.75 -3.54 -11.83 -7.85 -26.53 -13.89 -46.94 -2.78 -9.48 -5.27 -17.96 -5.56 -18.82 l-0.53 -1.53 -15.13 0.10 -15.18 0.14 -5.80 19.64 c-5.84 19.64 -15.37 52.01 -22.03 74.95 -4.50 15.42 -5.56 18.68 -5.99 18.68 -0.19 0 -0.67 -1.01 -1.10 -2.25 -0.38 -1.29 -3.07 -9.72 -5.99 -18.82 -6.47 -20.40 -18.25 -57.28 -24.28 -76.15 -2.49 -7.76 -4.69 -14.61 -4.98 -15.23 l-0.48 -1.05 -16.43 0 c-11.06 0 -16.57 0.14 -16.95 0.53 -0.34 0.34 0.10 2.44 1.63 7.28 3.07 9.72 52.40 157.52 52.92 158.53 0.38 0.77 1.63 0.81 15.66 0.81 14.13 0 15.28 -0.05 15.52 -0.81z"/>
  <path d="M465.29 251.25 c-0.77 -0.34 -1.77 -1.05 -2.20 -1.53 -0.72 -0.91 -9.48 -16.28 -10.87 -19.11 -0.38 -0.77 -1.39 -2.63 -2.25 -4.07 -2.54 -4.31 -5.36 -9.67 -11.35 -21.46 -4.17 -8.24 -5.65 -11.64 -5.65 -12.93 0 -1.01 2.87 -10.25 6.51 -21.17 3.59 -10.68 6.71 -20.02 6.94 -20.83 0.91 -3.59 7.71 -22.89 8.38 -23.95 1.29 -1.96 3.35 -2.25 15.90 -2.06 l11.69 0.14 1.15 1.34 c0.62 0.72 1.15 1.92 1.15 2.63 0 0.72 -1.87 4.74 -4.07 8.96 -6.61 12.45 -8.19 18.10 -8.09 29.22 0.05 6.47 0.96 11.78 3.11 18.20 1.44 4.26 5.46 12.69 7.18 15.18 0.53 0.67 0.91 1.39 0.91 1.58 0 0.34 2.87 4.65 3.35 5.03 0.14 0.14 0.81 1.01 1.44 1.92 2.01 3.02 0.62 2.87 24.62 2.87 12.17 0 22.32 -0.19 22.65 -0.38 0.29 -0.19 1.77 -2.49 3.26 -5.12 4.60 -8.05 9.82 -17.48 9.82 -17.72 0 -0.62 4.12 -6.47 4.79 -6.75 0.38 -0.19 9.29 -0.38 19.78 -0.48 20.55 -0.19 21.12 -0.10 22.41 2.30 0.72 1.34 0.29 4.07 -1.10 6.90 -2.11 4.21 -7.66 14.75 -8.43 16 -0.43 0.67 -1.96 3.45 -3.40 6.23 -1.44 2.78 -3.40 6.37 -4.41 8 -1.01 1.63 -3.02 5.17 -4.45 7.90 -2.73 5.17 -10.11 18.25 -11.64 20.74 -0.48 0.81 -1.63 1.82 -2.54 2.25 -1.58 0.81 -4.79 0.86 -47.42 0.86 -36.88 -0.05 -46.03 -0.14 -47.18 -0.67z m101.54 -19.54 c9.20 -16.57 13.89 -25.14 20.79 -37.74 l4.84 -8.86 -18.30 -0.14 c-14.22 -0.10 -18.44 0.05 -18.92 0.48 -0.29 0.34 -2.35 3.88 -4.45 7.81 -5.84 10.78 -11.11 20.02 -11.88 20.98 -0.67 0.77 -2.44 0.81 -24.95 0.81 -18.10 -0.05 -24.47 -0.19 -25.24 -0.62 -1.34 -0.77 -2.83 -2.54 -6.27 -7.76 -12.88 -19.30 -17 -39.18 -11.83 -57.14 1.53 -5.36 4.50 -12.07 7.42 -16.95 1.29 -2.16 2.25 -4.02 2.11 -4.12 -0.38 -0.38 -21.50 -0.10 -21.84 0.29 -0.19 0.19 -4.98 14.37 -10.63 31.56 l-10.35 31.23 2.54 5.41 c4.36 9.29 21.03 39.94 26.20 48.18 l0.67 1.05 46.03 0 46.07 0 8 -14.46z"/>
 </g>
</svg>